<svg xmlns="http://www.w3.org/2000/svg" viewBox="0 0 32 32">
  <!-- Camera icon (Heroicons style) in accent color - larger and centered -->
  <g transform="translate(16, 16) scale(1.6)">
    <!-- Camera body -->
    <path 
      d="M3 9a2 2 0 012-2h.93a2 2 0 001.664-.89l.812-1.22A2 2 0 0110.07 4h3.86a2 2 0 011.664.89l.812 1.22A2 2 0 0018.07 7H19a2 2 0 012 2v9a2 2 0 01-2 2H5a2 2 0 01-2-2V9z" 
      fill="none" 
      stroke="hsl(174, 45%, 43%)" 
      stroke-width="2.2" 
      stroke-linecap="round" 
      stroke-linejoin="round"
      transform="translate(-12, -13)"
    />
    <!-- Camera lens -->
    <circle 
      cx="0" 
      cy="0" 
      r="3" 
      fill="none" 
      stroke="hsl(174, 45%, 43%)" 
      stroke-width="2.2" 
      stroke-linecap="round" 
      stroke-linejoin="round"
    />
  </g>
</svg>

